<svg width="108" height="68" viewBox="0 0 108 68" fill="none" xmlns="http://www.w3.org/2000/svg">
<circle cx="54" cy="34" r="33.5" fill="white" stroke="#E5E8EF"/>
<path d="M48.9532 32.4848C51.1223 32.4848 52.8878 34.2488 52.8878 36.4193C52.8878 38.5898 51.1237 40.3538 48.9532 40.3538C46.7843 40.3538 45.0188 38.5898 45.0188 36.4193L45 35.868C45 31.5113 48.5302 27.999 52.869 27.999V30.2415C51.3615 30.2415 49.9642 30.8295 48.8977 31.8953C48.6945 32.0985 48.5123 32.2995 48.3278 32.5388C48.531 32.502 48.7507 32.4848 48.9532 32.4848ZM59.0655 32.4848C61.2345 32.4848 63 34.2488 63 36.4193C63 38.5898 61.236 40.3538 59.0655 40.3538C56.8965 40.3538 55.131 38.5898 55.131 36.4193L55.1122 35.868C55.1122 31.5113 58.6425 27.999 62.9813 27.999V30.2415C61.4925 30.2415 60.0765 30.8295 59.01 31.8953C58.8068 32.0985 58.6245 32.2995 58.4587 32.5388C58.662 32.502 58.863 32.484 59.0662 32.484L59.0655 32.4833V32.4848Z" fill="#545E76"/>
</svg>
