<svg height="auto" viewBox="0 0 2000 1000" xmlns="http://www.w3.org/2000/svg"><path d="M0 1000h27.586V12.879q0-4-4-4H4q-4 0-4 4ZM34.483 1000h27.586V18.198q0-4-4-4H38.483q-4 0-4 4ZM68.966 1000h27.586V35.982q0-4-4-4H72.966q-4 0-4 4ZM103.448 1000h27.586V36.778q0-4-4-4h-19.586q-4 0-4 4ZM137.931 1000h27.586V62.012q0-4-4-4h-19.586q-4 0-4 4ZM172.414 1000H200V50.785q0-4-4-4h-19.586q-4 0-4 4ZM206.897 1000h27.586V94.268q0-4-4-4h-19.586q-4 0-4 4ZM241.38 1000h27.586V106.278q0-4-4-4h-19.587q-4 0-4 4ZM275.862 1000h27.586V98.63q0-4-4-4h-19.586q-4 0-4 4ZM310.345 1000h27.586V126.78q0-4-4-4h-19.586q-4 0-4 4ZM344.828 1000h27.586V183.588q0-4-4-4h-19.586q-4 0-4 4ZM379.31 1000h27.587V132.724q0-4-4-4H383.31q-4 0-4 4ZM413.793 1000h27.586V117.719q0-4-4-4h-19.586q-4 0-4 4ZM448.276 1000h27.586V226.728q0-4-4-4h-19.586q-4 0-4 4ZM482.759 1000h27.586V162.02q0-4-4-4h-19.586q-4 0-4 4ZM517.241 1000h27.587V273.886q0-4-4-4H521.24q-4 0-4 4ZM551.724 1000h27.586V164.481q0-4-4-4h-19.586q-4 0-4 4ZM586.207 1000h27.586V284.383q0-4-4-4h-19.586q-4 0-4 4ZM620.69 1000h27.586V219.632q0-4-4-4H624.69q-4 0-4 4ZM655.172 1000h27.587V235.275q0-4-4-4h-19.587q-4 0-4 4ZM689.655 1000h27.586V298.535q0-4-4-4h-19.586q-4 0-4 4ZM724.138 1000h27.586V344.035q0-4-4-4h-19.586q-4 0-4 4ZM758.62 1000h27.587V336.248q0-4-4-4H762.62q-4 0-4 4ZM793.103 1000h27.587V328.733q0-4-4-4h-19.587q-4 0-4 4ZM827.586 1000h27.586V335.048q0-4-4-4h-19.586q-4 0-4 4ZM862.069 1000h27.586V432.59q0-4-4-4H866.07q-4 0-4 4ZM896.552 1000h27.586V267.888q0-4-4-4h-19.586q-4 0-4 4ZM931.034 1000h27.587V401.41q0-4-4-4h-19.587q-4 0-4 4ZM965.517 1000h27.586V473.043q0-4-4-4h-19.586q-4 0-4 4ZM1000 1000h27.586V274.533q0-4-4-4H1004q-4 0-4 4ZM1034.483 1000h27.586V344.233q0-4-4-4h-19.586q-4 0-4 4ZM1068.966 1000h27.586V529.084q0-4-4-4h-19.586q-4 0-4 4ZM1103.448 1000h27.586V318.332q0-4-4-4h-19.586q-4 0-4 4ZM1137.931 1000h27.586V350.24q0-4-4-4h-19.586q-4 0-4 4ZM1172.414 1000H1200V577.986q0-4-4-4h-19.586q-4 0-4 4ZM1206.897 1000h27.586V494.342q0-4-4-4h-19.586q-4 0-4 4ZM1241.38 1000h27.586V599.178q0-4-4-4h-19.587q-4 0-4 4ZM1275.862 1000h27.586V515.652q0-4-4-4h-19.586q-4 0-4 4ZM1310.345 1000h27.586V414.475q0-4-4-4h-19.586q-4 0-4 4ZM1344.828 1000h27.586V557.734q0-4-4-4h-19.586q-4 0-4 4ZM1379.31 1000h27.587V715.94q0-4-4-4h-19.587q-4 0-4 4ZM1413.793 1000h27.586V381.197q0-4-4-4h-19.586q-4 0-4 4ZM1448.276 1000h27.586V413.742q0-4-4-4h-19.586q-4 0-4 4ZM1482.759 1000h27.586V473.789q0-4-4-4h-19.586q-4 0-4 4ZM1517.241 1000h27.587V518.432q0-4-4-4h-19.587q-4 0-4 4ZM1551.724 1000h27.586V544.478q0-4-4-4h-19.586q-4 0-4 4ZM1586.207 1000h27.586V425.256q0-4-4-4h-19.586q-4 0-4 4ZM1620.69 1000h27.586V843.015q0-4-4-4h-19.586q-4 0-4 4ZM1655.172 1000h27.587V437.071q0-4-4-4h-19.587q-4 0-4 4ZM1689.655 1000h27.586V675.94q0-4-4-4h-19.586q-4 0-4 4ZM1724.138 1000h27.586V705.675q0-4-4-4h-19.586q-4 0-4 4ZM1758.62 1000h27.587V784.519q0-4-4-4h-19.586q-4 0-4 4ZM1793.103 1000h27.587V580.14q0-4-4-4h-19.587q-4 0-4 4ZM1827.586 1000h27.586v-87.3q0-4-4-4h-19.586q-4 0-4 4ZM1862.069 1000h27.586V843.57q0-4-4-4h-19.586q-4 0-4 4ZM1896.552 1000h27.586V734.53q0-4-4-4h-19.586q-4 0-4 4ZM1931.034 1000h27.587V629.978q0-4-4-4h-19.587q-4 0-4 4ZM1965.517 1000h27.586V788.817q0-4-4-4h-19.586q-4 0-4 4Z" fill="#f7d445"/></svg>