<svg height="auto" viewBox="0 0 2000 1000" xmlns="http://www.w3.org/2000/svg"><path d="M0 8.879c3.85.585 27.3 2.777 35 5.319 7.7 2.541 27.3 15.74 35 17.784 7.7 2.044 27.3-2.067 35 .796 7.7 2.864 27.3 23.693 35 25.234 7.7 1.54 27.3-14.775 35-11.227 7.7 3.548 27.3 37.379 35 43.483 7.7 6.104 27.3 11.53 35 12.01 7.7.48 27.3-9.903 35-7.648 7.7 2.255 27.3 18.804 35 28.15 7.7 9.345 27.3 56.154 35 56.808 7.7.654 27.3-43.618 35-50.864 7.7-7.245 27.3-25.345 35-15.005 7.7 10.34 27.3 104.136 35 109.01 7.7 4.873 27.3-69.897 35-64.71 7.7 5.188 27.3 111.597 35 111.867 7.7.271 27.3-110.56 35-109.405 7.7 1.155 27.3 113.835 35 119.902 7.7 6.066 27.3-59.35 35-64.751 7.7-5.402 27.3 6.963 35 15.643 7.7 8.679 27.3 51.296 35 63.26 7.7 11.963 27.3 41.352 35 45.5 7.7 4.149 27.3-6.104 35-7.787 7.7-1.684 27.3-7.384 35-7.515 7.7-.132 27.3-5.11 35 6.315 7.7 11.425 27.3 104.93 35 97.543 7.7-7.388 27.3-161.274 35-164.703 7.7-3.43 27.3 110.955 35 133.523 7.7 22.567 27.3 85.589 35 71.632 7.7-13.956 27.3-184.34 35-198.51 7.7-14.17 27.3 41.7 35 69.7 7.7 28 27.3 187.7 35 184.851 7.7-2.849 27.3-191.08 35-210.752 7.7-19.673 27.3 3.346 35 31.907 7.7 28.562 27.3 211.895 35 227.747 7.7 15.85 27.3-85.975 35-83.644 7.7 2.331 27.3 102.492 35 104.836 7.7 2.344 27.3-63.209 35-83.526 7.7-20.317 27.3-105.806 35-101.177 7.7 4.63 27.3 110.098 35 143.26 7.7 33.16 27.3 177.624 35 158.205 7.7-19.42 27.3-301.502 35-334.743 7.7-33.242 27.3 22.36 35 32.545 7.7 10.185 27.3 48.531 35 60.047 7.7 11.516 27.3 36.867 35 44.643 7.7 7.776 27.3 36.296 35 26.046 7.7-10.249 27.3-152.061 35-119.222 7.7 32.839 27.3 416.46 35 417.76 7.7 1.3 27.3-387.567 35-405.945 7.7-18.378 27.3 209.323 35 238.87 7.7 29.546 27.3 17.79 35 29.734 7.7 11.943 27.3 92.652 35 78.844 7.7-13.81 27.3-218.48 35-204.38 7.7 14.1 27.3 303.583 35 332.56 7.7 28.977 27.3-49.53 35-69.129 7.7-19.598 27.3-85.544 35-109.04 7.7-23.494 27.3-110.523 35-104.552 7.7 5.972 31.15 141.366 35 158.839l5 215.183H0Z" fill="#45f75f1a"/><path d="M0 8.879c3.85.585 27.3 2.777 35 5.319 7.7 2.541 27.3 15.74 35 17.784 7.7 2.044 27.3-2.067 35 .796 7.7 2.864 27.3 23.693 35 25.234 7.7 1.54 27.3-14.775 35-11.227 7.7 3.548 27.3 37.379 35 43.483 7.7 6.104 27.3 11.53 35 12.01 7.7.48 27.3-9.903 35-7.648 7.7 2.255 27.3 18.804 35 28.15 7.7 9.345 27.3 56.154 35 56.808 7.7.654 27.3-43.618 35-50.864 7.7-7.245 27.3-25.345 35-15.005 7.7 10.34 27.3 104.136 35 109.01 7.7 4.873 27.3-69.897 35-64.71 7.7 5.188 27.3 111.597 35 111.867 7.7.271 27.3-110.56 35-109.405 7.7 1.155 27.3 113.835 35 119.902 7.7 6.066 27.3-59.35 35-64.751 7.7-5.402 27.3 6.963 35 15.643 7.7 8.679 27.3 51.296 35 63.26 7.7 11.963 27.3 41.352 35 45.5 7.7 4.149 27.3-6.104 35-7.787 7.7-1.684 27.3-7.384 35-7.515 7.7-.132 27.3-5.11 35 6.315 7.7 11.425 27.3 104.93 35 97.543 7.7-7.388 27.3-161.274 35-164.703 7.7-3.43 27.3 110.955 35 133.523 7.7 22.567 27.3 85.589 35 71.632 7.7-13.956 27.3-184.34 35-198.51 7.7-14.17 27.3 41.7 35 69.7 7.7 28 27.3 187.7 35 184.851 7.7-2.849 27.3-191.08 35-210.752 7.7-19.673 27.3 3.346 35 31.907 7.7 28.562 27.3 211.895 35 227.747 7.7 15.85 27.3-85.975 35-83.644 7.7 2.331 27.3 102.492 35 104.836 7.7 2.344 27.3-63.209 35-83.526 7.7-20.317 27.3-105.806 35-101.177 7.7 4.63 27.3 110.098 35 143.26 7.7 33.16 27.3 177.624 35 158.205 7.7-19.42 27.3-301.502 35-334.743 7.7-33.242 27.3 22.36 35 32.545 7.7 10.185 27.3 48.531 35 60.047 7.7 11.516 27.3 36.867 35 44.643 7.7 7.776 27.3 36.296 35 26.046 7.7-10.249 27.3-152.061 35-119.222 7.7 32.839 27.3 416.46 35 417.76 7.7 1.3 27.3-387.567 35-405.945 7.7-18.378 27.3 209.323 35 238.87 7.7 29.546 27.3 17.79 35 29.734 7.7 11.943 27.3 92.652 35 78.844 7.7-13.81 27.3-218.48 35-204.38 7.7 14.1 27.3 303.583 35 332.56 7.7 28.977 27.3-49.53 35-69.129 7.7-19.598 27.3-85.544 35-109.04 7.7-23.494 27.3-110.523 35-104.552 7.7 5.972 31.15 141.366 35 158.839" fill="none" stroke="#45f75f" stroke-width="5"/><g fill="#45f75f"><circle cy="8.879" r="10"/><circle cx="35" cy="14.198" r="10"/><circle cx="70" cy="31.982" r="10"/><circle cx="105" cy="32.778" r="10"/><circle cx="140" cy="58.012" r="10"/><circle cx="175" cy="46.785" r="10"/><circle cx="210" cy="90.268" r="10"/><circle cx="245" cy="102.278" r="10"/><circle cx="280" cy="94.63" r="10"/><circle cx="315" cy="122.78" r="10"/><circle cx="350" cy="179.588" r="10"/><circle cx="385" cy="128.724" r="10"/><circle cx="420" cy="113.719" r="10"/><circle cx="455" cy="222.728" r="10"/><circle cx="490" cy="158.019" r="10"/><circle cx="525" cy="269.886" r="10"/><circle cx="560" cy="160.481" r="10"/><circle cx="595" cy="280.383" r="10"/><circle cx="630" cy="215.632" r="10"/><circle cx="665" cy="231.275" r="10"/><circle cx="700" cy="294.535" r="10"/><circle cx="735" cy="340.035" r="10"/><circle cx="770" cy="332.248" r="10"/><circle cx="805" cy="324.733" r="10"/><circle cx="840" cy="331.048" r="10"/><circle cx="875" cy="428.591" r="10"/><circle cx="910" cy="263.888" r="10"/><circle cx="945" cy="397.411" r="10"/><circle cx="980" cy="469.043" r="10"/><circle cx="1015" cy="270.533" r="10"/><circle cx="1050" cy="340.233" r="10"/><circle cx="1085" cy="525.084" r="10"/><circle cx="1120" cy="314.332" r="10"/><circle cx="1155" cy="346.239" r="10"/><circle cx="1190" cy="573.986" r="10"/><circle cx="1225" cy="490.342" r="10"/><circle cx="1260" cy="595.178" r="10"/><circle cx="1295" cy="511.652" r="10"/><circle cx="1330" cy="410.475" r="10"/><circle cx="1365" cy="553.734" r="10"/><circle cx="1400" cy="711.94" r="10"/><circle cx="1435" cy="377.197" r="10"/><circle cx="1470" cy="409.742" r="10"/><circle cx="1505" cy="469.789" r="10"/><circle cx="1540" cy="514.432" r="10"/><circle cx="1575" cy="540.478" r="10"/><circle cx="1610" cy="421.256" r="10"/><circle cx="1645" cy="839.015" r="10"/><circle cx="1680" cy="433.071" r="10"/><circle cx="1715" cy="671.94" r="10"/><circle cx="1750" cy="701.675" r="10"/><circle cx="1785" cy="780.519" r="10"/><circle cx="1820" cy="576.139" r="10"/><circle cx="1855" cy="908.699" r="10"/><circle cx="1890" cy="839.57" r="10"/><circle cx="1925" cy="730.531" r="10"/><circle cx="1960" cy="625.978" r="10"/><circle cx="1995" cy="784.817" r="10"/></g></svg>