<svg height="auto" viewBox="0 0 2000 1000" xmlns="http://www.w3.org/2000/svg"><path d="M0 989.771c14.94-3.577 53.12-10.988 83-19.875 29.88-8.886 53.12-21.207 83-29.494 29.88-8.287 53.12 2.327 83-16.545 29.88-18.873 53.12-81.84 83-88.302 29.88-6.462 53.12 54.671 83 52.398 29.88-2.272 53.12-36.124 83-65.023 29.88-28.9 53.12-94.92 83-95.528 29.88-.607 53.12 108.116 83 92.153 29.88-15.962 53.12-150.23 83-180.833 29.88-30.603 53.12 23.81 83 10.816 29.88-12.995 53.12-71.162 83-83.008 29.88-11.846 53.12 4.757 83 17.196 29.88 12.44 53.12 82.404 83 51.913 29.88-30.492 53.12-204.881 83-221.308 29.88-16.428 53.12 99.142 83 130.044 29.88 30.902 53.12 65.388 83 41.632 29.88-23.756 53.12-142.877 83-173.61 29.88-30.733 53.12 35.36 83 2.874 29.88-32.486 53.12-144.27 83-183.352 29.88-39.082 53.12-70.303 83-33.772 29.88 36.53 53.12 215.995 83 236.717 29.88 20.723 53.12-57.332 83-121.594 29.88-64.26 53.12-191.15 83-235.413 29.88-44.263 68.06-8.604 83-10.493l8 932.636H0Z" fill="#444cf71a"/><path d="M0 989.771c14.94-3.577 53.12-10.988 83-19.875 29.88-8.886 53.12-21.207 83-29.494 29.88-8.287 53.12 2.327 83-16.545 29.88-18.873 53.12-81.84 83-88.302 29.88-6.462 53.12 54.671 83 52.398 29.88-2.272 53.12-36.124 83-65.023 29.88-28.9 53.12-94.92 83-95.528 29.88-.607 53.12 108.116 83 92.153 29.88-15.962 53.12-150.23 83-180.833 29.88-30.603 53.12 23.81 83 10.816 29.88-12.995 53.12-71.162 83-83.008 29.88-11.846 53.12 4.757 83 17.196 29.88 12.44 53.12 82.404 83 51.913 29.88-30.492 53.12-204.881 83-221.308 29.88-16.428 53.12 99.142 83 130.044 29.88 30.902 53.12 65.388 83 41.632 29.88-23.756 53.12-142.877 83-173.61 29.88-30.733 53.12 35.36 83 2.874 29.88-32.486 53.12-144.27 83-183.352 29.88-39.082 53.12-70.303 83-33.772 29.88 36.53 53.12 215.995 83 236.717 29.88 20.723 53.12-57.332 83-121.594 29.88-64.26 53.12-191.15 83-235.413 29.88-44.263 68.06-8.604 83-10.493" fill="none" stroke="#444cf7" stroke-width="6"/><g fill="#444cf7"><circle cy="989.771" r="12"/><circle cx="83" cy="969.896" r="12"/><circle cx="166" cy="940.402" r="12"/><circle cx="249" cy="923.857" r="12"/><circle cx="332" cy="835.555" r="12"/><circle cx="415" cy="887.953" r="12"/><circle cx="498" cy="822.93" r="12"/><circle cx="581" cy="727.402" r="12"/><circle cx="664" cy="819.555" r="12"/><circle cx="747" cy="638.722" r="12"/><circle cx="830" cy="649.538" r="12"/><circle cx="913" cy="566.53" r="12"/><circle cx="996" cy="583.726" r="12"/><circle cx="1079" cy="635.639" r="12"/><circle cx="1162" cy="414.331" r="12"/><circle cx="1245" cy="544.375" r="12"/><circle cx="1328" cy="586.007" r="12"/><circle cx="1411" cy="412.397" r="12"/><circle cx="1494" cy="415.271" r="12"/><circle cx="1577" cy="231.919" r="12"/><circle cx="1660" cy="198.147" r="12"/><circle cx="1743" cy="434.864" r="12"/><circle cx="1826" cy="313.27" r="12"/><circle cx="1909" cy="77.857" r="12"/><circle cx="1992" cy="67.364" r="12"/></g></svg>