<svg height="auto" viewBox="0 0 2000 1000" xmlns="http://www.w3.org/2000/svg"><path d="M0 1000h50V794.997q0-13.793-13.793-13.793H13.793Q0 781.204 0 794.997ZM62.5 1000h50V461.828q0-13.793-13.793-13.793H76.293q-13.793 0-13.793 13.793ZM125 1000h50V370.56q0-13.794-13.793-13.794h-22.414Q125 356.766 125 370.56ZM187.5 1000h50V360.368q0-13.794-13.793-13.794h-22.414q-13.793 0-13.793 13.794ZM250 1000h50V628.94q0-13.792-13.793-13.792h-22.414Q250 615.148 250 628.94ZM312.5 1000h50V153.265q0-13.793-13.793-13.793h-22.414q-13.793 0-13.793 13.793ZM375 1000h50V581.353q0-13.793-13.793-13.793h-22.414Q375 567.56 375 581.353ZM437.5 1000h50V698.71q0-13.792-13.793-13.792h-22.414q-13.793 0-13.793 13.793ZM500 1000h50V327.363q0-13.793-13.793-13.793h-22.414Q500 313.57 500 327.363ZM562.5 1000h50V716.59q0-13.793-13.793-13.793h-22.414q-13.793 0-13.793 13.793ZM625 1000h50V519.207q0-13.793-13.793-13.793h-22.414q-13.793 0-13.793 13.793ZM687.5 1000h50V797.292q0-13.793-13.793-13.793h-22.414q-13.793 0-13.793 13.793ZM750 1000h50V705.755q0-13.793-13.793-13.793h-22.414q-13.793 0-13.793 13.793ZM812.5 1000h50V611.93q0-13.793-13.793-13.793h-22.414q-13.793 0-13.793 13.793ZM875 1000h50V587.876q0-13.793-13.793-13.793h-22.414q-13.793 0-13.793 13.793ZM937.5 1000h50V576.166q0-13.793-13.793-13.793h-22.414q-13.793 0-13.793 13.793ZM1000 1000h50V636.828q0-13.793-13.793-13.793h-22.414q-13.793 0-13.793 13.793ZM1062.5 1000h50V735.723q0-13.793-13.793-13.793h-22.414q-13.793 0-13.793 13.793ZM1125 1000h50V342.612q0-13.793-13.793-13.793h-22.414q-13.793 0-13.793 13.793ZM1187.5 1000h50V758.628q0-13.793-13.793-13.793h-22.414q-13.793 0-13.793 13.793ZM1250 1000h50V752.93q0-13.794-13.793-13.794h-22.414q-13.793 0-13.793 13.793ZM1312.5 1000h50V751.582q0-13.793-13.793-13.793h-22.414q-13.793 0-13.793 13.793ZM1375 1000h50V252.835q0-13.793-13.793-13.793h-22.414q-13.793 0-13.793 13.793ZM1437.5 1000h50V799.524q0-13.793-13.793-13.793h-22.414q-13.793 0-13.793 13.793ZM1500 1000h50V732.97q0-13.794-13.793-13.794h-22.414q-13.793 0-13.793 13.793ZM1562.5 1000h50V246.175q0-13.793-13.793-13.793h-22.414q-13.793 0-13.793 13.793ZM1625 1000h50V640.221q0-13.793-13.793-13.793h-22.414q-13.793 0-13.793 13.793ZM1687.5 1000h50V721.527q0-13.793-13.793-13.793h-22.414q-13.793 0-13.793 13.793ZM1750 1000h50V430.354q0-13.793-13.793-13.793h-22.414q-13.793 0-13.793 13.793ZM1812.5 1000h50V269.662q0-13.793-13.793-13.793h-22.414q-13.793 0-13.793 13.793ZM1875 1000h50V476.073q0-13.794-13.793-13.794h-22.414q-13.793 0-13.793 13.794ZM1937.5 1000h50V260.586q0-13.793-13.793-13.793h-22.414q-13.793 0-13.793 13.793Z" fill="#4a1426"/></svg>