<svg height="auto" viewBox="0 0 2000 1000" xmlns="http://www.w3.org/2000/svg"><path d="M0 1000h27.586M34.483 1000h27.586v-12.219q0-4-4-4H38.483q-4 0-4 4ZM68.966 1000h27.586v-27.407q0-4-4-4H72.966q-4 0-4 4ZM103.448 1000h27.586v-29.492q0-4-4-4h-19.586q-4 0-4 4ZM137.931 1000h27.586v-60.599q0-4-4-4h-19.586q-4 0-4 4ZM172.414 1000H200v-82.395q0-4-4-4h-19.586q-4 0-4 4ZM206.897 1000h27.586v-80.505q0-4-4-4h-19.586q-4 0-4 4ZM241.38 1000h27.586v-84.709q0-4-4-4h-19.587q-4 0-4 4ZM275.862 1000h27.586v-68.136q0-4-4-4h-19.586q-4 0-4 4ZM310.345 1000h27.586V882.348q0-4-4-4h-19.586q-4 0-4 4ZM344.828 1000h27.586V845.877q0-4-4-4h-19.586q-4 0-4 4ZM379.31 1000h27.587V832.874q0-4-4-4H383.31q-4 0-4 4ZM413.793 1000h27.586V888.62q0-4-4-4h-19.586q-4 0-4 4ZM448.276 1000h27.586V809.65q0-4-4-4h-19.586q-4 0-4 4ZM482.759 1000h27.586V841.926q0-4-4-4h-19.586q-4 0-4 4ZM517.241 1000h27.587V815.467q0-4-4-4H521.24q-4 0-4 4ZM551.724 1000h27.586V857.018q0-4-4-4h-19.586q-4 0-4 4ZM586.207 1000h27.586V827.717q0-4-4-4h-19.586q-4 0-4 4ZM620.69 1000h27.586V731.185q0-4-4-4H624.69q-4 0-4 4ZM655.172 1000h27.587V686.161q0-4-4-4h-19.587q-4 0-4 4ZM689.655 1000h27.586V713.533q0-4-4-4h-19.586q-4 0-4 4ZM724.138 1000h27.586V643.997q0-4-4-4h-19.586q-4 0-4 4ZM758.62 1000h27.587V704.201q0-4-4-4H762.62q-4 0-4 4ZM793.103 1000h27.587V754.158q0-4-4-4h-19.587q-4 0-4 4ZM827.586 1000h27.586V628.072q0-4-4-4h-19.586q-4 0-4 4ZM862.069 1000h27.586V558.99q0-4-4-4H866.07q-4 0-4 4ZM896.552 1000h27.586V658.129q0-4-4-4h-19.586q-4 0-4 4ZM931.034 1000h27.587V543.7q0-4-4-4h-19.587q-4 0-4 4ZM965.517 1000h27.586V722.763q0-4-4-4h-19.586q-4 0-4 4ZM1000 1000h27.586V712.979q0-4-4-4H1004q-4 0-4 4ZM1034.483 1000h27.586V530.725q0-4-4-4h-19.586q-4 0-4 4ZM1068.966 1000h27.586V657.235q0-4-4-4h-19.586q-4 0-4 4ZM1103.448 1000h27.586V550.542q0-4-4-4h-19.586q-4 0-4 4ZM1137.931 1000h27.586V479.857q0-4-4-4h-19.586q-4 0-4 4ZM1172.414 1000H1200V667.361q0-4-4-4h-19.586q-4 0-4 4ZM1206.897 1000h27.586V663.167q0-4-4-4h-19.586q-4 0-4 4ZM1241.38 1000h27.586V408.45q0-4-4-4h-19.587q-4 0-4 4ZM1275.862 1000h27.586V471.264q0-4-4-4h-19.586q-4 0-4 4ZM1310.345 1000h27.586V602.03q0-4-4-4h-19.586q-4 0-4 4ZM1344.828 1000h27.586V545.704q0-4-4-4h-19.586q-4 0-4 4ZM1379.31 1000h27.587V506.785q0-4-4-4h-19.587q-4 0-4 4ZM1413.793 1000h27.586V310.143q0-4-4-4h-19.586q-4 0-4 4ZM1448.276 1000h27.586V429.532q0-4-4-4h-19.586q-4 0-4 4ZM1482.759 1000h27.586V498.781q0-4-4-4h-19.586q-4 0-4 4ZM1517.241 1000h27.587V446.798q0-4-4-4h-19.587q-4 0-4 4ZM1551.724 1000h27.586V306.127q0-4-4-4h-19.586q-4 0-4 4ZM1586.207 1000h27.586V322.496q0-4-4-4h-19.586q-4 0-4 4ZM1620.69 1000h27.586V368.885q0-4-4-4h-19.586q-4 0-4 4ZM1655.172 1000h27.587V204.826q0-4-4-4h-19.587q-4 0-4 4ZM1689.655 1000h27.586V406.676q0-4-4-4h-19.586q-4 0-4 4ZM1724.138 1000h27.586V247.203q0-4-4-4h-19.586q-4 0-4 4ZM1758.62 1000h27.587V201.479q0-4-4-4h-19.586q-4 0-4 4ZM1793.103 1000h27.587V224.271q0-4-4-4h-19.587q-4 0-4 4ZM1827.586 1000h27.586V55.667q0-4-4-4h-19.586q-4 0-4 4ZM1862.069 1000h27.586V347.242q0-4-4-4h-19.586q-4 0-4 4ZM1896.552 1000h27.586V264.737q0-4-4-4h-19.586q-4 0-4 4ZM1931.034 1000h27.587V212.315q0-4-4-4h-19.587q-4 0-4 4ZM1965.517 1000h27.586V111.12q0-4-4-4h-19.586q-4 0-4 4Z" fill="#4a3f14"/></svg>