<svg width="18" height="45" viewBox="0 0 18 45" fill="none" xmlns="http://www.w3.org/2000/svg">
<g id="award-prize-svgrepo-com 2" opacity="0.4" clip-path="url(#clip0_445_6535)">
<g id="Group">
<g id="Group_2">
<g id="Group_3">
<path id="Vector" d="M8.50711 28.5224C8.48568 28.5227 8.46416 28.5236 8.44273 28.5236C7.57182 28.5236 6.70092 28.2334 5.90256 27.8705C4.74138 27.1447 3.94302 26.0561 3.58011 24.7497L2.85438 21.9193C2.78184 21.7016 2.85438 21.4838 2.92693 21.3387C2.99948 21.1209 3.14466 21.0484 3.36238 20.9758C4.66874 20.6128 6.04765 20.8306 7.20892 21.4838C8.30776 22.1705 9.08103 23.1826 9.46851 24.3963C9.50406 24.0147 9.52405 23.6479 9.53136 23.2981C9.58639 21.7573 9.39052 20.2374 8.96859 18.7976L6.62837 19.5968C6.04774 19.8145 5.53974 19.887 4.9591 19.887C4.16074 19.887 3.43502 19.6693 2.70929 19.379C1.54811 18.7984 0.60457 17.7824 0.169117 16.476C0.0239372 16.0406 0.241663 15.6777 0.60457 15.5326L3.36247 14.5891C4.61865 14.1827 5.91217 14.2852 7.08083 14.8274C6.52997 14.0306 5.89346 13.2924 5.17691 12.6296C4.88664 12.3393 4.88664 11.9039 5.17691 11.6135C5.46719 11.3232 5.90264 11.3232 6.193 11.6135C6.5235 11.9215 6.8375 12.2442 7.13645 12.5789V11.8312C7.13645 9.00079 9.38627 6.75098 12.2167 6.75098C12.6522 6.75098 12.9424 7.04125 12.9424 7.4767V10.3797C12.9424 12.7906 11.3097 14.7791 9.0766 15.3161C9.68853 16.4215 10.166 17.6044 10.4981 18.8385L10.62 18.3631C11.3457 15.6779 14.1036 14.0086 16.7889 14.6618C16.9341 14.7343 17.1518 14.8795 17.2243 15.0247C17.2969 15.2424 17.2969 15.3876 17.2969 15.6053L16.5712 18.4358C15.9905 20.7582 13.8859 22.2823 11.636 22.2823C11.4509 22.2823 11.2468 22.2631 11.0336 22.2254C11.0536 22.6052 11.0616 22.9872 11.0554 23.3709C11.0367 23.8487 10.9972 24.3581 10.9295 24.8944C11.6549 23.986 12.6791 23.4052 13.8133 23.1532C15.1922 22.8629 16.4985 23.1532 17.6598 23.8789C18.0227 24.0966 18.0952 24.5321 17.8775 24.895L16.2809 27.29C15.5552 28.4512 14.3939 29.177 13.0875 29.4673C12.7246 29.5398 12.4344 29.5398 12.0714 29.5398C11.2992 29.5398 10.569 29.3717 9.88057 29.0682C9.49607 30.0753 8.99564 31.1239 8.34892 32.1973C10.7561 31.0755 13.6584 31.9715 14.9744 34.2572C15.047 34.475 15.1196 34.6202 15.047 34.8379C14.9744 34.9831 14.8293 35.2008 14.6841 35.2733L12.1439 36.7249C11.3456 37.1603 10.4746 37.378 9.60374 37.378C9.16829 37.378 8.73283 37.3055 8.29738 37.2329C7.27262 36.9632 6.4086 36.4125 5.76401 35.671C5.03862 36.4807 4.21841 37.2938 3.28967 38.1038C3.14449 38.1763 2.92676 38.249 2.78167 38.249C2.56394 38.249 2.34621 38.1764 2.20103 37.9587C1.91076 37.6684 1.98331 37.233 2.27358 36.9426C5.64664 34.0692 7.51399 31.1484 8.50711 28.5224ZM8.15237 25.04C7.93464 24.0966 7.35401 23.2982 6.4831 22.7902C5.82992 22.4273 5.17674 22.2096 4.45102 22.2822L4.95902 24.3143C5.17674 25.2577 5.75738 26.0561 6.62828 26.5641C7.28146 26.927 7.93464 27.0721 8.66037 27.0721L8.15237 25.04ZM11.4909 10.3798V8.27506C9.82164 8.63797 8.58791 10.0894 8.58791 11.8312V13.936C10.2571 13.573 11.4909 12.1216 11.4909 10.3798ZM15.1923 18.0728L15.7003 16.0407C14.031 15.9681 12.4344 17.0568 11.9989 18.7986L11.4909 20.8307C13.1601 20.9032 14.7568 19.742 15.1923 18.0728ZM12.7973 28.0156C13.7407 27.8705 14.6116 27.2899 15.1197 26.4915L16.2809 24.7497C15.6277 24.4595 14.902 24.3868 14.1762 24.532C13.2327 24.6772 12.3618 25.2577 11.8537 26.0561L10.6925 27.7979C11.3457 28.0882 12.0714 28.1607 12.7973 28.0156ZM8.66045 35.7812C9.60391 35.9989 10.5474 35.9263 11.4184 35.4183L13.2327 34.4023C12.0715 33.0959 10.1845 32.8056 8.733 33.6039L6.91864 34.6925C7.3541 35.2006 7.93464 35.5634 8.66045 35.7812ZM3.79784 15.968L1.8383 16.6212C2.2012 17.2744 2.7092 17.7824 3.36238 18.0728C4.23329 18.4357 5.17674 18.5082 6.12028 18.2179L8.15237 17.4922C7.13637 16.2584 5.53965 15.3149 3.79784 15.968Z" fill="white"/>
</g>
</g>
</g>
</g>
<defs>
<clipPath id="clip0_445_6535">
<rect width="18" height="43.5" fill="white" transform="matrix(-1 0 0 1 18 0.75)"/>
</clipPath>
</defs>
</svg>
