<svg width="18" height="45" viewBox="0 0 18 45" fill="none" xmlns="http://www.w3.org/2000/svg">
<g id="award-prize-svgrepo-com 1" opacity="0.4" clip-path="url(#clip0_445_6527)">
<g id="Group">
<g id="Group_2">
<g id="Group_3">
<path id="Vector" d="M9.49289 28.5224C9.51432 28.5227 9.53584 28.5236 9.55727 28.5236C10.4282 28.5236 11.2991 28.2334 12.0974 27.8705C13.2586 27.1447 14.057 26.0561 14.4199 24.7497L15.1456 21.9193C15.2182 21.7016 15.1456 21.4838 15.0731 21.3387C15.0005 21.1209 14.8553 21.0484 14.6376 20.9758C13.3313 20.6128 11.9523 20.8306 10.7911 21.4838C9.69224 22.1705 8.91897 23.1826 8.53149 24.3963C8.49594 24.0147 8.47595 23.6479 8.46864 23.2981C8.41361 21.7573 8.60948 20.2374 9.03141 18.7976L11.3716 19.5968C11.9523 19.8145 12.4603 19.887 13.0409 19.887C13.8393 19.887 14.565 19.6693 15.2907 19.379C16.4519 18.7984 17.3954 17.7824 17.8309 16.476C17.9761 16.0406 17.7583 15.6777 17.3954 15.5326L14.6375 14.5891C13.3814 14.1827 12.0878 14.2852 10.9192 14.8274C11.47 14.0306 12.1065 13.2924 12.8231 12.6296C13.1134 12.3393 13.1134 11.9039 12.8231 11.6135C12.5328 11.3232 12.0974 11.3232 11.807 11.6135C11.4765 11.9215 11.1625 12.2442 10.8635 12.5789V11.8312C10.8635 9.00079 8.61373 6.75098 5.78329 6.75098C5.34783 6.75098 5.05756 7.04125 5.05756 7.4767V10.3797C5.05756 12.7906 6.69034 14.7791 8.9234 15.3161C8.31147 16.4215 7.834 17.6044 7.50188 18.8385L7.38001 18.3631C6.65428 15.6779 3.89638 14.0086 1.21111 14.6618C1.06593 14.7343 0.848206 14.8795 0.775659 15.0247C0.703111 15.2424 0.703111 15.3876 0.703111 15.6053L1.42884 18.4358C2.00947 20.7582 4.11411 22.2823 6.364 22.2823C6.54907 22.2823 6.75319 22.2631 6.96641 22.2254C6.94642 22.6052 6.93843 22.9872 6.94455 23.3709C6.96326 23.8487 7.00281 24.3581 7.07051 24.8944C6.34512 23.986 5.32087 23.4052 4.18674 23.1532C2.80783 22.8629 1.50147 23.1532 0.340205 23.8789C-0.0227008 24.0966 -0.0952479 24.5321 0.122479 24.895L1.71911 27.29C2.44484 28.4512 3.6061 29.177 4.91246 29.4673C5.27537 29.5398 5.56564 29.5398 5.92855 29.5398C6.7008 29.5398 7.43104 29.3717 8.11943 29.0682C8.50393 30.0753 9.00436 31.1239 9.65108 32.1973C7.24393 31.0755 4.34161 31.9715 3.02556 34.2572C2.95301 34.475 2.88038 34.6202 2.95301 34.8379C3.02556 34.9831 3.17074 35.2008 3.31592 35.2733L5.85609 36.7249C6.65445 37.1603 7.52535 37.378 8.39626 37.378C8.83171 37.378 9.26717 37.3055 9.70262 37.2329C10.7274 36.9632 11.5914 36.4125 12.236 35.671C12.9614 36.4807 13.7816 37.2938 14.7103 38.1038C14.8555 38.1763 15.0732 38.249 15.2183 38.249C15.4361 38.249 15.6538 38.1764 15.799 37.9587C16.0892 37.6684 16.0167 37.233 15.7264 36.9426C12.3534 34.0692 10.486 31.1484 9.49289 28.5224ZM9.84763 25.04C10.0654 24.0966 10.646 23.2982 11.5169 22.7902C12.1701 22.4273 12.8233 22.2096 13.549 22.2822L13.041 24.3143C12.8233 25.2577 12.2426 26.0561 11.3717 26.5641C10.7185 26.927 10.0654 27.0721 9.33963 27.0721L9.84763 25.04ZM6.5091 10.3798V8.27506C8.17836 8.63797 9.41209 10.0894 9.41209 11.8312V13.936C7.74291 13.573 6.5091 12.1216 6.5091 10.3798ZM2.80775 18.0728L2.29975 16.0407C3.96901 15.9681 5.56564 17.0568 6.0011 18.7986L6.5091 20.8307C4.83992 20.9032 3.2432 19.742 2.80775 18.0728ZM5.20274 28.0156C4.25928 27.8705 3.38838 27.2899 2.88029 26.4915L1.71911 24.7497C2.37229 24.4595 3.09802 24.3868 3.82383 24.532C4.76728 24.6772 5.63819 25.2577 6.14628 26.0561L7.30746 27.7979C6.65428 28.0882 5.92855 28.1607 5.20274 28.0156ZM9.33955 35.7812C8.39609 35.9989 7.45255 35.9263 6.58165 35.4183L4.76729 34.4023C5.92847 33.0959 7.81546 32.8056 9.267 33.6039L11.0814 34.6925C10.6459 35.2006 10.0654 35.5634 9.33955 35.7812ZM14.2022 15.968L16.1617 16.6212C15.7988 17.2744 15.2908 17.7824 14.6376 18.0728C13.7667 18.4357 12.8233 18.5082 11.8797 18.2179L9.84763 17.4922C10.8636 16.2584 12.4604 15.3149 14.2022 15.968Z" fill="white"/>
</g>
</g>
</g>
</g>
<defs>
<clipPath id="clip0_445_6527">
<rect width="18" height="43.5" fill="white" transform="translate(0 0.75)"/>
</clipPath>
</defs>
</svg>
