<svg width="16" height="16" viewBox="0 0 16 16" fill="none" xmlns="http://www.w3.org/2000/svg">
<g opacity="0.3">
<path fill-rule="evenodd" clip-rule="evenodd" d="M4.88506 14.9989C11.1321 14.9989 14.5491 9.82288 14.5491 5.33488C14.5491 5.18788 14.5491 5.04087 14.5391 4.89587C15.0841 4.50187 15.5681 4.02988 15.9761 3.49787C16.0091 3.45187 16.0081 3.38987 15.9731 3.34487C15.9391 3.29988 15.8801 3.28288 15.8271 3.30288C15.3291 3.48488 14.8111 3.60987 14.2831 3.67188C14.9141 3.29488 15.4031 2.72388 15.6821 2.04988C15.6971 2.01088 15.6851 1.96688 15.6541 1.93988C15.6231 1.91287 15.5781 1.90788 15.5411 1.92788C14.9391 2.25188 14.2911 2.48487 13.6201 2.61787C12.9771 1.93487 12.0801 1.54688 11.1431 1.54688C9.27806 1.54688 7.74306 3.08188 7.74306 4.94688C7.74306 5.20588 7.77306 5.46388 7.83106 5.71588C5.17206 5.58188 2.68706 4.35387 0.967059 2.32987C0.936059 2.29287 0.888059 2.27387 0.840059 2.27887C0.792059 2.28387 0.749059 2.31288 0.727059 2.35588C-0.0259413 3.87087 0.458059 5.74988 1.88206 6.70087C1.49506 6.68887 0.872059 6.49787 0.549059 6.39087C0.502059 6.37488 0.451059 6.38387 0.412059 6.41388C0.372059 6.44388 0.351059 6.49188 0.354059 6.54087C0.434059 7.21987 0.846059 9.24487 3.06606 9.64787C2.63106 9.76688 2.17806 9.79788 1.73306 9.73888C1.69006 9.73288 1.64706 9.74988 1.62006 9.78288C1.59306 9.81688 1.58606 9.86187 1.60106 9.90187C2.09906 11.1759 3.32506 12.0399 4.70506 12.0659C3.91006 12.6899 2.99106 13.1269 2.01806 13.3499C1.70006 13.4229 0.945059 13.4659 0.371059 13.4799C0.286059 13.4769 0.210059 13.5339 0.187059 13.6159C0.165059 13.6989 0.201059 13.7859 0.276059 13.8279C1.68706 14.5949 3.27106 14.9989 4.88506 14.9969" fill="#111112"/>
</g>
</svg>
